<svg xmlns="http://www.w3.org/2000/svg" width="512" height="512" viewBox="0 0 512 512" role="img" aria-label="refineIT logo">
  <!-- Background with subtle rounded corners -->
  <rect width="100%" height="100%" rx="28" fill="#ffffff" />

  <!-- Original logo paths centered within the 512x512 canvas -->
  <g transform="translate(6.5,200)">
    <path d="M176.683 45.7842C178.971 42.8509 181.582 40.5629 184.515 38.9202C187.507 37.2189 190.616 36.3682 193.843 36.3682L191.027 52.2962H186.891C183.136 52.2962 180.174 53.1175 178.003 54.7602C175.832 56.3442 174.395 59.1602 173.691 63.2082L169.643 86.0002H154.595L163.219 36.8962H178.267L176.683 45.7842ZM222.86 36.1922C229.196 36.1922 234.212 37.9229 237.908 41.3842C241.662 44.7869 243.54 49.4509 243.54 55.3762C243.54 57.3122 243.393 59.0429 243.1 60.5682C242.865 61.9175 242.513 63.3549 242.044 64.8802H207.988C207.929 65.2322 207.9 65.7895 207.9 66.5522C207.9 69.1335 208.604 71.0989 210.012 72.4482C211.42 73.7975 213.297 74.4722 215.644 74.4722C219.398 74.4722 222.273 72.8882 224.268 69.7202H240.284C238.172 74.7069 234.74 78.7842 229.988 81.9522C225.236 85.1202 219.897 86.7042 213.972 86.7042C207.636 86.7042 202.561 84.9442 198.748 81.4242C194.993 77.9042 193.116 73.1229 193.116 67.0802C193.116 65.2615 193.292 63.3842 193.644 61.4482C194.524 56.3442 196.342 51.8855 199.1 48.0722C201.857 44.2589 205.289 41.3255 209.396 39.2722C213.502 37.2189 217.99 36.1922 222.86 36.1922ZM228.316 57.2242C228.433 56.4029 228.492 55.8455 228.492 55.5522C228.492 53.2055 227.758 51.4162 226.292 50.1842C224.825 48.8935 222.889 48.2482 220.484 48.2482C217.902 48.2482 215.614 49.0402 213.62 50.6242C211.684 52.1495 210.276 54.3495 209.396 57.2242H228.316ZM280.782 29.8562C277.907 29.6802 275.795 30.0909 274.446 31.0882C273.155 32.0855 272.275 33.8749 271.806 36.4562L271.718 36.8962H279.814L277.614 49.3922H269.518L263.094 86.0002H247.958L254.382 49.3922H248.926L251.126 36.8962H256.582L256.846 35.4882C257.961 29.4455 260.513 24.8695 264.502 21.7602C268.55 18.5922 273.918 17.0082 280.606 17.0082C281.662 17.0082 282.454 17.0375 282.982 17.0962L280.782 29.8562ZM295.333 31.7922C292.986 31.7922 291.109 31.1762 289.701 29.9442C288.352 28.6535 287.677 27.0402 287.677 25.1042C287.677 22.4642 288.704 20.2055 290.757 18.3282C292.81 16.4509 295.304 15.5122 298.237 15.5122C300.584 15.5122 302.432 16.1575 303.781 17.4482C305.13 18.6802 305.805 20.2935 305.805 22.2882C305.805 24.8695 304.778 27.0989 302.725 28.9762C300.672 30.8535 298.208 31.7922 295.333 31.7922ZM301.845 36.8962L293.221 86.0002H278.173L286.797 36.8962H301.845ZM342.758 36.3682C347.686 36.3682 351.558 37.7469 354.374 40.5042C357.19 43.2615 358.598 47.1042 358.598 52.0322C358.598 53.6749 358.422 55.4349 358.07 57.3122L352.966 86.0002H338.006L342.758 59.3362C342.934 58.3389 343.022 57.4589 343.022 56.6962C343.022 54.2322 342.318 52.3255 340.91 50.9762C339.561 49.6269 337.654 48.9522 335.19 48.9522C332.257 48.9522 329.793 49.8615 327.798 51.6802C325.804 53.4989 324.513 56.0509 323.926 59.3362V58.8962L319.174 86.0002H304.126L312.75 36.8962H327.798L326.654 43.4962C328.59 41.3255 330.937 39.5949 333.694 38.3042C336.51 37.0135 339.532 36.3682 342.758 36.3682ZM394.047 36.1922C400.383 36.1922 405.399 37.9229 409.095 41.3842C412.85 44.7869 414.727 49.4509 414.727 55.3762C414.727 57.3122 414.58 59.0429 414.287 60.5682C414.052 61.9175 413.7 63.3549 413.231 64.8802H379.175C379.116 65.2322 379.087 65.7895 379.087 66.5522C379.087 69.1335 379.791 71.0989 381.199 72.4482C382.607 73.7975 384.484 74.4722 386.831 74.4722C390.586 74.4722 393.46 72.8882 395.455 69.7202H411.471C409.359 74.7069 405.927 78.7842 401.175 81.9522C396.423 85.1202 391.084 86.7042 385.159 86.7042C378.823 86.7042 373.748 84.9442 369.935 81.4242C366.18 77.9042 364.303 73.1229 364.303 67.0802C364.303 65.2615 364.479 63.3842 364.831 61.4482C365.711 56.3442 367.53 51.8855 370.287 48.0722C373.044 44.2589 376.476 41.3255 380.583 39.2722C384.69 37.2189 389.178 36.1922 394.047 36.1922ZM399.503 57.2242C399.62 56.4029 399.679 55.8455 399.679 55.5522C399.679 53.2055 398.946 51.4162 397.479 50.1842C396.012 48.8935 394.076 48.2482 391.671 48.2482C389.09 48.2482 386.802 49.0402 384.807 50.6242C382.871 52.1495 381.463 54.3495 380.583 57.2242H399.503ZM443.61 24.2242L432.698 86.0002H417.65L428.562 24.2242H443.61ZM498.955 24.2242L496.931 36.1042H480.475L471.675 86.0002H456.627L465.427 36.1042H449.059L451.171 24.2242H498.955Z" fill="url(#paint0_linear_752_42)"></path>
    <path d="M94.3385 63.3548L102.832 55.0425L102.928 54.9466C112.167 45.7071 114.906 31.9385 109.908 19.875C104.899 7.8008 93.2302 0 80.1649 0H13.3253L24.5789 26.738H80.1756C83.3513 26.738 84.6941 28.848 85.2163 30.1055C85.7385 31.3524 86.2713 33.7821 84.0653 36.0094L7.18701 111.353H45.3811L72.8011 84.4873C86.6976 85.9899 97.6954 97.3074 98.6758 111.353H125.435C124.678 90.3059 112.199 72.2 94.3598 63.3548H94.3385Z" fill="url(#paint1_linear_752_42)"></path>
    <path d="M28.9439 37.1509L0 64.9545H40.6451L28.9439 37.1509Z" fill="url(#paint2_linear_752_42)"></path>
    <path d="M62.1765 42.775C62.8136 38.8417 60.1414 35.1367 56.2081 34.4996C52.2748 33.8626 48.5698 36.5347 47.9328 40.468C47.2957 44.4013 49.9679 48.1063 53.9011 48.7433C57.8344 49.3804 61.5394 46.7083 62.1765 42.775Z" fill="url(#paint3_linear_752_42)"></path>
  </g>

  <defs>
    <linearGradient id="paint0_linear_752_42" x1="327.935" y1="-12.9998" x2="328.57" y2="123.417" gradientUnits="userSpaceOnUse"><stop stop-color="#000050"></stop><stop offset="1" stop-color="#000050" stop-opacity="0.69"></stop></linearGradient>
    <linearGradient id="paint1_linear_752_42" x1="66.2898" y1="-1.43867" x2="66.2898" y2="110.543" gradientUnits="userSpaceOnUse"><stop stop-color="#0DC6C1"></stop><stop offset="1" stop-color="#0144E0"></stop></linearGradient>
    <linearGradient id="paint2_linear_752_42" x1="20.3226" y1="-1.43746" x2="20.3226" y2="110.544" gradientUnits="userSpaceOnUse"><stop stop-color="#8C52FF"></stop><stop offset="1" stop-color="#6432FF"></stop></linearGradient>
    <linearGradient id="paint3_linear_752_42" x1="55.0791" y1="34.3999" x2="55.0791" y2="48.8292" gradientUnits="userSpaceOnUse"><stop stop-color="#8C52FF"></stop><stop offset="1" stop-color="#6432FF"></stop></linearGradient>
  </defs>
</svg>
